<svg id="Layer_1" data-name="Layer 1" xmlns="http://www.w3.org/2000/svg" width="38.8" height="38.8" viewBox="0 0 38.8 38.8"><title>airfield_icon</title><g opacity="0.8"><path d="M24.73,5.06a19.4,19.4,0,1,1-19.4,19.4,19.42,19.42,0,0,1,19.4-19.4" transform="translate(-5.33 -5.06)" fill="#99918c"/></g><path d="M19.25,37.9a1.14,1.14,0,0,1-.8-0.3l-2.7-3.8L15,33.1l-3.6-2.5a1.12,1.12,0,0,1-.3-1.3,1.2,1.2,0,0,1,1-.7h0.2l4,0.6,4.9-6c-2.3-.8-8.3-2.8-8.7-3.2a1.5,1.5,0,0,1-.7-1.4,1.87,1.87,0,0,1,.8-1.4c0.9-.6,1.9-0.5,3.5-0.2,0.3,0.1.5,0.1,0.9,0.2,1.1,0.2,4.3.7,6.8,1.1l1.9,0.3,3.6-3.6c1.2-1.2,5.07-2.76,6.27-1.46S35.25,18.4,34,19.7l-3.7,3.7,0.4,2.7c0.4,2.4.8,5.1,1,6.1,0.1,0.3.1,0.6,0.2,0.9,0.3,1.4.5,2.5-.3,3.5a1.6,1.6,0,0,1-1.4.8h0a1.71,1.71,0,0,1-1.3-.7c-0.4-.5-2.4-6.4-3.2-8.8l-6,4.8,0.6,4.1a0.81,0.81,0,0,1-.3.9A1.17,1.17,0,0,1,19.25,37.9Z" transform="translate(-5.33 -5.06)" fill="#fff" stroke="#666" stroke-miterlimit="10"/></svg>