<svg id="Layer_1" data-name="Layer 1" xmlns="http://www.w3.org/2000/svg" width="31.59" height="32.16" viewBox="0 0 31.59 32.16"><title>interstate_1</title><path d="M16.6,32.61a1.34,1.34,0,0,1-.54-0.07C12.63,31.8,1.31,29.35,1.31,12.28c0-2.75.76-7.79,3.59-9.13a3.57,3.57,0,0,1,1.53-.37,6.11,6.11,0,0,1,2.91,1,4,4,0,0,0,1.3.59,2.11,2.11,0,0,0,1.61-.89,5.68,5.68,0,0,1,4.36-2,6,6,0,0,1,4.44,2,2.11,2.11,0,0,0,1.61.89,4.85,4.85,0,0,0,1.3-.59,6.11,6.11,0,0,1,2.91-1,3.57,3.57,0,0,1,1.53.37c2.75,1.34,3.52,6.38,3.52,9.13,0,17.06-11.32,19.44-14.76,20.26A1.34,1.34,0,0,1,16.6,32.61Z" transform="translate(-0.81 -0.95)" fill="#f4efe8" stroke="#859ebe" stroke-miterlimit="10"/><path d="M16.6,9.84c4.51,0,9.94.45,13,1.56-0.15-2.75-1-5.64-2.29-6.31S24.48,6.5,22.65,6.5c-3.06,0-3.29-2.89-6-2.89s-3,2.89-6,2.89c-1.84.07-3.44-2-4.67-1.41S3.76,8.65,3.6,11.39C6.66,10.28,12.09,9.84,16.6,9.84Z" transform="translate(-0.81 -0.95)" fill="#a80415" opacity="0.6" style="isolation:isolate"/><path d="M16.6,11.32c-5.81,0-10.86.67-13,1.71,0.23,12.54,7.27,16,13,17.36,5.74-1.34,12.77-4.82,13-17.36C27.46,12,22.42,11.32,16.6,11.32Z" transform="translate(-0.81 -0.95)" fill="#335d93" style="isolation:isolate"/></svg>