<svg id="Layer_2" data-name="Layer 2" xmlns="http://www.w3.org/2000/svg" width="36.8" height="35.08" viewBox="0 0 36.8 35.08"><title>interstate_2</title><g id="Layer_2-2" data-name="Layer 2"><path d="M18.46,34.62A1,1,0,0,1,18,34.54a3.38,3.38,0,0,1-.39-0.08C5,31.6.49,21,.49,11.92c0-2.94.86-8.21,4-9.68a3.5,3.5,0,0,1,1.56-.31,7,7,0,0,1,3.11,1,4.31,4.31,0,0,0,1.48.62,3.77,3.77,0,0,0,1.79-.85A9.88,9.88,0,0,1,18.07.54h0.7A10.33,10.33,0,0,1,24.3,2.63a3.48,3.48,0,0,0,1.79.85,3.78,3.78,0,0,0,1.48-.62,7,7,0,0,1,3.11-1,3.5,3.5,0,0,1,1.56.31c3.19,1.47,4,6.74,4,9.68,0,9-4.44,19.6-17,22.54A1.57,1.57,0,0,1,18.46,34.62Z" transform="translate(0.01 -0.04)" fill="#f4efe8" stroke="#859ebe" stroke-miterlimit="10"/><path d="M18.46,10.3A44.55,44.55,0,0,0,3.21,12.85c0.39,12.7,8.95,17.89,15.25,19.29h0.16C25,30.74,33.56,25.55,33.95,12.85A45.33,45.33,0,0,0,18.46,10.3Z" transform="translate(0.01 -0.04)" fill="#335d93"/><path d="M18.46,8.59a48.56,48.56,0,0,1,15.49,2.48c-0.16-2.87-1.09-5.89-2.57-6.58C30.06,3.87,28.27,6,26.24,6,23.6,6,22.35,3.09,18.7,3H18.54C14.8,3.09,13.56,6,10.91,6c-2,0-3.81-2.09-5.14-1.47S3.44,8.2,3.21,11A47.59,47.59,0,0,1,18.46,8.59Z" transform="translate(0.01 -0.04)" fill="#a80415" opacity="0.6" style="isolation:isolate"/></g></svg>