<svg id="Layer_1" data-name="Layer 1" xmlns="http://www.w3.org/2000/svg" width="41" height="35.08" viewBox="0 0 41 35.08"><title>interstate_3</title><path d="M20,34.08a2.42,2.42,0,0,1-1.28-.4C18.4,33.6,17.6,33.52,17,33.44c-5-.8-17-4.24-17-22.56C0,7.2,1.44,2.72,4.48,1.6a4.53,4.53,0,0,1,1.44-.24,8.66,8.66,0,0,1,3.2.88,6.11,6.11,0,0,0,2.08.64,4.67,4.67,0,0,0,2.4-1A12.37,12.37,0,0,1,20,0a12.37,12.37,0,0,1,6.4,1.92,5.51,5.51,0,0,0,2.4,1,6.11,6.11,0,0,0,2.08-.64,8.25,8.25,0,0,1,3.2-.88,4.18,4.18,0,0,1,1.44.24c3,1.12,4.48,5.6,4.48,9.28C40,29.2,28.08,32.64,23,33.44a7.75,7.75,0,0,0-1.76.32A2.35,2.35,0,0,1,20,34.08Z" transform="translate(0.5 0.5)" fill="#f8f4f0" stroke="#859ebe" stroke-miterlimit="10"/><path d="M20,7.68c7.2,0,14.08,1.2,17.6,2.56-0.16-2.72-1.2-5.76-2.88-6.4S31.12,5.2,28.8,5.2c-3,0-4.48-2.8-8.8-2.8s-5.76,2.8-8.8,2.8c-2.32,0-4.32-2-5.84-1.44-1.68.64-2.8,3.68-2.88,6.4C5.92,8.88,12.8,7.68,20,7.68Z" transform="translate(0.5 0.5)" fill="#a80415" opacity="0.6" style="isolation:isolate"/><path d="M20,9.28c-7.36,0-14.56,1.36-17.6,2.64C3,31,17.92,30.08,20,31.68c2.08-1.6,17-.64,17.6-19.76C34.56,10.64,27.36,9.28,20,9.28Z" transform="translate(0.5 0.5)" fill="#335d93"/></svg>