<svg id="svg3487" xmlns="http://www.w3.org/2000/svg" width="28.08" height="26.83" viewBox="0 0 28.08 26.83"><title>us_state_1</title><path id="rect3525" d="M3.13,0.7h23.7a1.65,1.65,0,0,1,1.69,1.61v22.6a1.65,1.65,0,0,1-1.69,1.61H3.13a1.65,1.65,0,0,1-1.69-1.61V2.32A1.65,1.65,0,0,1,3.13.7Z" transform="translate(-0.93 -0.2)" fill="#fed533" stroke="#335d93" stroke-miterlimit="10"/><path id="path428" d="M5.43,1.95L5.45,2v0l0,0.08V2.3l0,0.08,0,0.17,0,0,0,0.1,0,0.17,0,0L5.55,3l0,0.06V3.45l0,0.06V3.72l0,0.06,0,0.08,0,0.1,0,0.08,0,0v0.1l0,0.08v0l0,0.06v0l0,0-0.06,0V4.52l0,0.06,0,0,0,0,0,0v0l0,0V6H8.52V5.84l0,0,0,0,0-.08,0,0h0l-0.06,0,0,0L8.2,5.56l0,0,0,0,0,0,0,0h0l0,0L8,5.36l0,0,0,0h0l0,0H7.83l0,0,0,0L7.7,5.17l0,0V4.75l0,0v0l0,0V4.6l0,0,0,0v0l0,0v0l0,0,0-.1v0l0,0,0.17-.1v0l0,0V3.75l0,0,0.27-.27,0.17-.19,0.08-.1,0,0,0,0L8.62,3l0.17-.1h0L9,2.83H9l0.21-.17H9.06l0,0,0,0H8.66L8.6,2.53l0,0h0l0,0h0l0,0,0,0.06h0l0,0-0.1,0h0l0,0-0.06,0v0l0,0v0l-0.1,0,0,0,0,0,0,0H8v0h0l0,0h0V2.53h0v0l0-.06v0l0,0H7.7V2.3L7.49,2.22H7.41l0,0h0l0,0,0,0v0h0l-0.06,0h0l0,0v0l0,0v0l0,0h0l-0.15,0h0v0H6.78l0,0,0,0v0L6.64,1.76a0.08,0.08,0,0,0,0-.06h0l0,0H6.47V1.95h-1Z" transform="translate(-0.93 -0.2)" fill="#335d93"/><path id="rect3000" d="M3.43,6.73h23V23.92a1,1,0,0,1-1,1h-21a1,1,0,0,1-1-1s0-17.19,0-17.19h0Z" transform="translate(-0.93 -0.2)" fill="#335d93"/></svg>