<svg id="Layer_1" data-name="Layer 1" xmlns="http://www.w3.org/2000/svg" width="70.98" height="57.42" viewBox="0 0 70.98 57.42"><title>us_state_3</title><path d="M68.9,48.1c0,15.2-15.3,27-34.5,27S0,63.3,0,48.1s15.3-27,34.5-27,34.4,11.8,34.4,27" transform="translate(0 -18.58)" fill="#9b9391"/><path d="M34.5,24.1C17,24.1,2.8,34.9,2.8,48.1s14.2,24,31.7,24,31.7-10.8,31.7-24S52,24.1,34.5,24.1Z" transform="translate(0 -18.58)" fill="#fff"/><path id="rect3525" d="M5.31,19.58H65.67C68.05,19.58,70,21.13,70,23V71.54C70,73.45,68.05,75,65.67,75H5.31C2.93,75,1,73.45,1,71.54V23C1,21.13,2.93,19.58,5.31,19.58Z" transform="translate(0 -18.58)" fill="#fed533" stroke="#335d93" stroke-miterlimit="10" stroke-width="2"/><path id="path428" d="M9.25,22.77L9.31,23V23.1l0.06,0.22v0.39l-0.06.22,0.06,0.44-0.06.06L9.37,24.7l0.12,0.44,0.06,0.11,0.06,0.39,0.06,0.17v0.94l0.06,0.17v0.55l0.06,0.17,0.06,0.22L10,28.13,10,28.35l0.06,0.06v0.28L10,28.9V29l-0.12.17v0.06l-0.06.06-0.18.11v0.17l0.12,0.17,0.06,0.11L10,29.89l0.12,0.06V30l0.06,0.06V33.6h8V33L18.08,33,18,32.93l-0.12-.22-0.06-.06H17.78l-0.18-.11-0.12-.06-0.24-.17-0.06-.11-0.06-.11L17.05,32,17,31.94H16.87l-0.06-.06-0.18-.11-0.06-.06-0.12-.11H16.39l-0.06-.06H16.15l-0.06-.06L16,31.44l-0.18-.17-0.06-.06v-1l0.06-.06V30.06L15.85,30V29.78l-0.12-.11-0.12-.06V29.56l-0.06-.06V29.45l0.06-.06,0.12-.28V29.07L15.85,29l0.48-.28V28.62l0.06-.06v-1l0.12-.11,0.78-.72,0.48-.5L18,25.92l0.06-.06,0.12-.11,0.24-.17,0.48-.28H19l0.6-.22h0.06l0.6-.44H19.7l-0.06-.06-0.12-.11h-1l-0.18-.17-0.06-.06H18.26l-0.06.06H18.14l-0.06.06L18,24.54H17.9l-0.06.06-0.3.06H17.41l-0.06-.06-0.18-.06V24.48l-0.06-.06V24.37l-0.3-.06-0.06-.06-0.06-.11-0.06-.06H16.57V24H16.45l-0.06.06H16.33v0.22H16.21V24.26l-0.12-.17V24L16,23.93H15.79V23.71l-0.6-.22H15l-0.06.06H14.83l-0.12.11-0.06.06v0.06H14.53l-0.18.06H14.23l-0.06-.06V23.71l-0.06-.06V23.6l-0.06-.06H14l-0.42-.06H13.51V23.43H13.15L13,23.38,13,23.32V23.27l-0.24-1a0.19,0.19,0,0,0-.06-0.17H12.55l-0.12-.06H12.25v0.72h-3Z" transform="translate(0 -18.58)" fill="#335d93"/><path id="rect3000" d="M4.07,34.44H66.93s0,24.16,0,35.3a2.49,2.49,0,0,1-2.73,2.14H6.8a2.49,2.49,0,0,1-2.73-2.14s0-35.3,0-35.3h0Z" transform="translate(0 -18.58)" fill="#335d93"/></svg>