<svg id="svg3487" xmlns="http://www.w3.org/2000/svg" width="60.05" height="61.42" viewBox="0 0 60.05 61.42"><title>us_state_2</title><path id="rect3525" d="M4.61,16.17H55.4A3.67,3.67,0,0,1,59,19.88v52a3.67,3.67,0,0,1-3.63,3.71H4.61A3.67,3.67,0,0,1,1,71.87v-52A3.67,3.67,0,0,1,4.61,16.17Z" transform="translate(0.02 -15.17)" fill="#fed533" stroke="#859ebe" stroke-miterlimit="10" stroke-width="2"/><path id="path428" d="M7.42,18.55l0.06,0.24V18.9l0.06,0.24v0.41l-0.06.24,0.06,0.47-0.06.06,0.06,0.3L7.65,21.1l0.06,0.12,0.06,0.41,0.06,0.18v1L7.89,23v0.59l0.06,0.18L8,24l0.12,0.3,0.06,0.24,0.06,0.06v0.3l-0.06.24v0.12l-0.12.18v0.06L8,25.54l-0.18.12v0.18L7.95,26,8,26.13l0.12,0.06,0.12,0.06v0.06L8.3,26.37v3.79h7.87V29.57l-0.06-.06-0.06-.06-0.12-.24-0.06-.06H15.82L15.64,29,15.52,29l-0.24-.18-0.06-.12-0.06-.12-0.06-.06L15,28.38H14.93l-0.06-.06-0.18-.12-0.06-.06L14.52,28H14.46L14.4,28H14.22l-0.06-.06L14,27.85l-0.18-.18-0.06-.06V26.49l0.06-.06V26.37l0.06-.06V26.07L13.81,26l-0.12-.06V25.83l-0.06-.06V25.72l0.06-.06,0.12-.3V25.3l0.12-.12,0.47-.3V24.83l0.06-.06V23.64l0.12-.12,0.77-.77,0.47-.53,0.24-.3,0.06-.06,0.12-.12,0.24-.18,0.47-.3H17L17.59,21h0.06l0.59-.47H17.71l-0.06-.06-0.12-.12H16.59l-0.18-.18-0.06-.06H16.29l-0.06.06H16.17l-0.06.06L16,20.44H15.94l-0.06.06-0.3.06H15.46L15.4,20.5l-0.18-.06V20.39l-0.06-.06V20.27l-0.3-.06-0.06-.06L14.75,20,14.69,20H14.63V19.91H14.52L14.46,20H14.4v0.24H14.28V20.15L14.16,20V19.85l-0.06-.06H13.87V19.56l-0.59-.24H13L13,19.38H12.92l-0.12.12-0.06.06v0.06H12.62l-0.18.06H12.33l-0.06-.06V19.56l-0.06-.06V19.44l-0.06-.06H12.09l-0.41-.06H11.62V19.26H11.26l-0.12-.06-0.06-.06V19.08L10.85,18a0.22,0.22,0,0,0-.06-0.18H10.67l-0.12-.06H10.37v0.77h-3Z" transform="translate(0.02 -15.17)" fill="#335d93"/><path id="rect3000" d="M4.62,31H55.28s0,26,0,37.94a2.25,2.25,0,0,1-2.2,2.3H6.82A2.25,2.25,0,0,1,4.62,69S4.62,31,4.62,31h0Z" transform="translate(0.02 -15.17)" fill="#335d93"/></svg>