<?xml version="1.0" encoding="utf-8"?>
<!-- Generator: Adobe Illustrator 19.2.1, SVG Export Plug-In . SVG Version: 6.00 Build 0)  -->
<svg version="1.0" id="Layer_2" xmlns="http://www.w3.org/2000/svg" xmlns:xlink="http://www.w3.org/1999/xlink" x="0px" y="0px"
	 width="32px" height="32px" viewBox="0 0 32 32" enable-background="new 0 0 32 32" xml:space="preserve">
<g opacity="0.47">
	<defs>
		<filter id="Adobe_OpacityMaskFilter" filterUnits="userSpaceOnUse" x="14.3" y="9.2" width="14.7" height="20.6">
			<feFlood  style="flood-color:white;flood-opacity:1" result="back"/>
			<feBlend  in="SourceGraphic" in2="back" mode="normal"/>
		</filter>
	</defs>
	<mask maskUnits="userSpaceOnUse" x="14.3" y="9.2" width="14.7" height="20.6" id="SVGID_1_">
		<g filter="url(#Adobe_OpacityMaskFilter)">
			<image overflow="visible" width="19" height="25" xlink:href="4F55055A.jpg"  transform="matrix(1 0 0 1 12 7)">
			</image>
		</g>
	</mask>
	<g mask="url(#SVGID_1_)">
		<path fill="#231F20" d="M28.5,21.7c-0.8,2.3-1.9,3.3-4.8,4.6c-4.2,1.8-7.4,3.8-8,3.4c-1.2-0.9-2.6-14.8,0.2-18.8s2.9-0.5,7.4,2.7
			S30.1,17,28.5,21.7z"/>
	</g>
</g>
<path fill="#6A95CE" stroke="#354B67" stroke-width="0.5" stroke-miterlimit="10" d="M25.5,11.4c0,2.9-2.5,7.1-4.7,10.9
	c-2.3,4-4.4,7.4-5.1,7.4c-0.9,0-3.1-3.6-5.4-7.9C8.3,18.2,6,14.1,6,11.4c0-5.9,3.9-9.7,9.9-9.7S25.5,5.3,25.5,11.4z"/>
<circle fill="#FFFFFF" stroke="#354B67" stroke-width="0.5" stroke-miterlimit="10" cx="15.7" cy="11.7" r="3"/>
</svg>
