<svg id="Layer_1" data-name="Layer 1" xmlns="http://www.w3.org/2000/svg" width="36.27" height="29.1" viewBox="0 0 36.27 29.1"><title>us_highway_3</title><path d="M18,29.1l-0.36-.36c-1.44-1.56-5.16-2.64-7.08-2.82-2.34-.12-5,0.66-7.68-1.92C-1.27,19.74,0,15.66,1,12.42,1.79,9.78,2.45,7.74.65,5.88L0.47,5.52,6.23,0,6.59,0.36c1,1,3.48,2.64,5.28,2.64s4.68-1.68,6.3-2.7l0.3-.18L18.65,0.3C20.33,1.38,23.21,3,25.07,3S29.33,1.32,30.35.36L30.71,0,36,5.52l-0.36.36c-1.86,1.92-1.14,3.9-.36,6.54,1,3.24,2.16,7.2-1.86,11.46-2.64,2.7-5.34,1.92-7.68,2-1.92.12-5.64,1.14-7.08,2.7Z" transform="translate(0)" fill="#807a7a"/><path d="M18,27.06c-1.92-1.56-5.34-2.46-7.32-2.7H8A5.35,5.35,0,0,1,3.89,22.8C0.41,19.2,1.37,16,2.33,12.9l0.12-.3c0.66-2.34,1.38-4.74-.18-7L6.05,2a10.3,10.3,0,0,0,5.64,2.46c2.16,0,4.86-1.56,6.6-2.64,1.44,0.9,4.5,2.64,6.72,2.64,1.92,0,4.26-1.38,5.52-2.46L34,5.46c-1.68,2.34-1,4.74-.18,7.08l0.12,0.3c0.9,3,1.92,6.3-1.44,10a4.81,4.81,0,0,1-4.08,1.56H25.85C23.57,24.54,20,25.5,18,27.06Z" transform="translate(0)" fill="#fafafa"/></svg>