<svg id="Layer_1" data-name="Layer 1" xmlns="http://www.w3.org/2000/svg" width="53.69" height="58.1" viewBox="0 0 53.69 58.1"><title>us_highway_1</title><path d="M30,74.1l-0.7-.7c-2.8-3-4-3.2-7.5-3.7-4.2-.2-8.2-0.5-13.3-5.8C0.7,55.4,3,47.3,4.8,40.8c1.2-5.1,2.5-9.2-.7-12.9l-0.7-.7L14,16.1l0.7,0.7c2.1,1.8,3.6,3.2,7.1,3.2s4.9-1.2,7.9-3.5l0.5-.5,0.7,0.5c3,2.1,4.5,3.5,7.9,3.5a8,8,0,0,0,6.8-3.2l0.9-.7,9.9,11.1-0.7.7c-3.5,3.9-2.3,7.6-.7,12.9,1.8,6.2,3.9,14.3-3.5,22.6-4.8,5.3-8.9,5.8-13.3,6-3.5.2-4.9,0.5-7.5,3.5Z" transform="translate(-3.03 -16)" fill="#807a7a"/><path d="M30,69.2c-3-2.3-4.5-2.8-7.5-3H22c-3.9-.2-6.8-0.5-11.2-4.8C4.4,54.2,6.5,47.8,8.1,42l0.5-1.6c1.2-4.4,2.1-8.8-.5-12.9L14.3,21c2.5,1.8,4.3,2.8,7.5,2.8,3.7,0,5.4-1.2,8.6-3.2,3.5,2.1,4.9,3.2,8.4,3.2a11.88,11.88,0,0,0,7.5-2.5l5.5,6.2c-3.2,4.8-1.6,9.9-.2,14.5,2.1,6.5,3.2,12.5-2.8,19.4C45.1,65.6,42.4,66,38,66.2,35.2,66.2,33.2,66.5,30,69.2Z" transform="translate(-3.03 -16)" fill="#fafafa"/></svg>