<svg id="Layer_1" data-name="Layer 1" xmlns="http://www.w3.org/2000/svg" width="29.11" height="27.42" viewBox="0 0 29.11 27.42"><title>us_highway_2</title><path d="M13.33,26.34a5.08,5.08,0,0,0-3.12-1H10C7.57,25.32,5.11,25,2.83,22.5c-3.9-4-2.88-7.8-2.1-10.56v-0.3L1,11.22c0.48-2,.84-3.3.06-4.44l-1-1.38L5.59,0,6.91,1A5,5,0,0,0,9.85,2,7.73,7.73,0,0,0,13.75.9l1-.66,1,0.66a8.92,8.92,0,0,0,4,1.14,5.68,5.68,0,0,0,2.88-1L24,0l5.16,5.64-1,1.14c-1,1.32-.48,2.76.06,4.74l0.06,0.3v0.06c1,3.3,1.5,6.78-1.8,10.5a9.37,9.37,0,0,1-7,2.88c-1.5.06-2.76,0.06-3.84,1.08l-1.26,1.08Z" transform="translate(0)" fill="#807a7a"/><path d="M14.47,25c-1.38-1.14-2.94-1.2-4.38-1.44H9.85c-2.22-.06-4-0.3-5.88-2.22-3.24-3.3-2.16-6.36-1.44-9l0.24-.48c0.48-2.1,1.14-4.08-.24-6.06l3.3-3.18A7.22,7.22,0,0,0,9.85,4a9.1,9.1,0,0,0,5-1.5,9.63,9.63,0,0,0,5,1.5,7.24,7.24,0,0,0,3.9-1.38l2.94,3.18c-1.5,2.1-.84,4.32-0.24,6.48V12.3c1,3.12,1.5,5.82-1.32,9a7.13,7.13,0,0,1-5.7,2.22A7.22,7.22,0,0,0,14.47,25Z" transform="translate(0)" fill="#fafafa"/></svg>